<?xml version="1.0" encoding="UTF-8"?>
<svg width="150px" height="52px" viewBox="0 0 150 52" version="1.1" xmlns="http://www.w3.org/2000/svg" xmlns:xlink="http://www.w3.org/1999/xlink">
    <title>Logo</title>
    <g id="Logo" stroke="none" stroke-width="1" fill="none" fill-rule="evenodd">
        <g id="Group">
            <g id="Supermiler" fill="#FFFFFF">
                <path d="M12.9397183,7.09683099 C12.5333803,6.5834507 11.9819718,6.20246479 11.2861972,5.95669014 C10.5897183,5.71091549 9.93197183,5.58697183 9.3115493,5.58697183 C8.94746479,5.58697183 8.57352113,5.6306338 8.18690141,5.71584507 C7.80239437,5.80176056 7.43830986,5.93556338 7.09535211,6.11725352 C6.75380282,6.29964789 6.47422535,6.53978873 6.26084507,6.83978873 C6.04746479,7.13978873 5.94042254,7.50316901 5.94042254,7.93204225 C5.94042254,8.61584507 6.19746479,9.14119718 6.71014085,9.50528169 C7.22422535,9.86866197 7.87211268,10.1792254 8.65380282,10.4355634 C9.43408451,10.6926056 10.2742254,10.9496479 11.1742254,11.2059859 C12.0728169,11.4637324 12.9122535,11.8278169 13.6939437,12.2989437 C14.4756338,12.7693662 15.1235211,13.4010563 15.6376056,14.1926056 C16.1509859,14.9848592 16.4080282,16.0447183 16.4080282,17.3721831 C16.4080282,18.6348592 16.1714085,19.7369718 15.7009859,20.6792254 C15.2298592,21.6214789 14.5939437,22.4024648 13.7904225,23.0228873 C12.9876056,23.6440141 12.0566197,24.1038732 10.9974648,24.4038732 C9.93690141,24.7038732 8.81929577,24.8538732 7.64183099,24.8538732 C6.16507042,24.8538732 4.79535211,24.6285211 3.53197183,24.1792254 C2.26859155,23.7292254 1.09183099,23.0024648 0.000281690141,21.9947183 L3.5643662,18.0785211 C4.07774648,18.7630282 4.72492958,19.2933099 5.50591549,19.6679577 C6.28760563,20.0426056 7.09535211,20.2292254 7.93056338,20.2292254 C8.33690141,20.2292254 8.74957746,20.181338 9.1671831,20.0848592 C9.58408451,19.9883803 9.95943662,19.8447183 10.2911268,19.6510563 C10.6221127,19.459507 10.8897183,19.2130282 11.0939437,18.9130282 C11.2967606,18.6137324 11.3988732,18.2609155 11.3988732,17.8524648 C11.3988732,17.1693662 11.135493,16.6278169 10.6115493,16.2327465 C10.0869014,15.8362676 9.42915493,15.4996479 8.63760563,15.2200704 C7.84535211,14.9433099 6.98901408,14.6644366 6.06859155,14.3855634 C5.14816901,14.1080986 4.29112676,13.7327465 3.49957746,13.2623239 C2.70802817,12.790493 2.04887324,12.1693662 1.52492958,11.3989437 C1.00028169,10.6292254 0.738309859,9.61161972 0.738309859,8.34894366 C0.738309859,7.12922535 0.97915493,6.05880282 1.46084507,5.13767606 C1.94253521,4.21725352 2.58408451,3.44683099 3.38760563,2.82640845 C4.18971831,2.20598592 5.11507042,1.73978873 6.16507042,1.42922535 C7.21295775,1.1193662 8.29394366,0.963028169 9.40802817,0.963028169 C10.691831,0.963028169 11.9333803,1.14542254 13.1326761,1.50880282 C14.3312676,1.87359155 15.4122535,2.48415493 16.3756338,3.33978873 L12.9397183,7.09683099 Z" id="Fill-1"></path>
                <path d="M32.9440845,24.2754225 L28.3208451,24.2754225 L28.3208451,22.1557042 L28.2560563,22.1557042 C28.0849296,22.4557042 27.864507,22.7557042 27.5969014,23.0557042 C27.3292958,23.355 27.0032394,23.6226056 26.6187324,23.8578169 C26.2335211,24.0937324 25.7947887,24.2866901 25.3011268,24.4366901 C24.8095775,24.5845775 24.2743662,24.6606338 23.6961972,24.6606338 C22.4764789,24.6606338 21.4856338,24.4733099 20.7257746,24.0993662 C19.9659155,23.7247183 19.3778873,23.205 18.9609859,22.5416197 C18.5433803,21.8789437 18.264507,21.0965493 18.1257746,20.1972535 C17.9856338,19.298662 17.9166197,18.3247183 17.9166197,17.2761268 L17.9166197,8.67049296 L22.7328169,8.67049296 L22.7328169,16.3120423 C22.7328169,16.761338 22.7483099,17.226831 22.7807042,17.7092254 C22.8130986,18.1902113 22.9095775,18.6345775 23.0701408,19.0416197 C23.2307042,19.448662 23.4771831,19.7796479 23.8088732,20.0366901 C24.1398592,20.2944366 24.6166197,20.4219014 25.2377465,20.4219014 C25.8574648,20.4219014 26.3616901,20.3099296 26.7469014,20.0852817 C27.1321127,19.8599296 27.4257746,19.561338 27.6292958,19.1852817 C27.8321127,18.811338 27.9673239,18.389507 28.0314085,17.9176761 C28.0947887,17.4472535 28.1271831,16.9542958 28.1271831,16.4409155 L28.1271831,8.67049296 L32.9440845,8.67049296 L32.9440845,24.2754225 Z" id="Fill-3"></path>
                <path d="M39.6219014,16.4725352 C39.6219014,17.65 39.9599296,18.6021127 40.6338732,19.3309859 C41.3085211,20.0591549 42.255,20.421831 43.4761268,20.421831 C44.6958451,20.421831 45.6430282,20.0591549 46.3176761,19.3309859 C46.9923239,18.6021127 47.3289437,17.65 47.3289437,16.4725352 C47.3289437,15.2950704 46.9923239,14.3429577 46.3176761,13.6147887 C45.6430282,12.8880282 44.6958451,12.5232394 43.4761268,12.5232394 C42.255,12.5232394 41.3085211,12.8880282 40.6338732,13.6147887 C39.9599296,14.3429577 39.6219014,15.2950704 39.6219014,16.4725352 L39.6219014,16.4725352 Z M35.1909155,8.67042254 L39.6219014,8.67042254 L39.6219014,10.7253521 L39.6866901,10.7253521 C39.8796479,10.4464789 40.1310563,10.1626761 40.4409155,9.87464789 C40.7514789,9.58591549 41.1155634,9.32323944 41.533169,9.08802817 C41.9507746,8.8528169 42.405,8.65915493 42.8972535,8.50915493 C43.3902113,8.35915493 43.9141549,8.28521127 44.470493,8.28521127 C45.626831,8.28521127 46.6754225,8.48309859 47.6176761,8.87887324 C48.5592254,9.27464789 49.3683803,9.83098592 50.0423239,10.5485915 C50.7169718,11.265493 51.2345775,12.1161972 51.5993662,13.1014085 C51.9627465,14.0859155 52.1451408,15.1669014 52.1451408,16.343662 C52.1451408,17.4352113 51.9789437,18.4795775 51.6472535,19.4753521 C51.3148592,20.4704225 50.8451408,21.3535211 50.2345775,22.1239437 C49.6247183,22.8943662 48.8796479,23.5098592 48.0028873,23.9704225 C47.1247183,24.4302817 46.1296479,24.6605634 45.0162676,24.6605634 C44.0099296,24.6605634 43.0740141,24.5042254 42.2071127,24.1950704 C41.3402113,23.8852113 40.6282394,23.3549296 40.0719014,22.6056338 L40.0085211,22.6056338 L40.0085211,31.5964789 L35.1909155,31.5964789 L35.1909155,8.67042254 Z" id="Fill-5"></path>
                <path d="M64.0572535,14.7064789 C64.0783803,13.8930986 63.8107746,13.1973239 63.2544366,12.6191549 C62.6980986,12.0409859 61.9811972,11.7522535 61.1037324,11.7522535 C60.5678169,11.7522535 60.0973944,11.838169 59.6910563,12.01 C59.2840141,12.1811268 58.9361268,12.4001408 58.6466901,12.6670423 C58.3579577,12.9353521 58.1333099,13.2459155 57.9727465,13.5994366 C57.8121831,13.9522535 57.721338,14.3212676 57.699507,14.7064789 L64.0572535,14.7064789 Z M68.1354225,21.5776056 C67.365,22.5635211 66.3903521,23.3226761 65.2135915,23.8578873 C64.0361268,24.3930986 62.8157042,24.6607042 61.5530282,24.6607042 C60.3537324,24.6607042 59.2255634,24.4684507 58.1664085,24.081831 C57.1058451,23.6973239 56.1854225,23.1466197 55.4037324,22.4297183 C54.6227465,21.7121127 54.0072535,20.8508451 53.5572535,19.844507 C53.108662,18.8374648 52.8833099,17.7142254 52.8833099,16.4726761 C52.8833099,15.231831 53.108662,14.1078873 53.5572535,13.1015493 C54.0072535,12.0952113 54.6227465,11.2332394 55.4037324,10.516338 C56.1854225,9.79873239 57.1058451,9.24873239 58.1664085,8.86211268 C59.2255634,8.47690141 60.3537324,8.28535211 61.5530282,8.28535211 C62.6657042,8.28535211 63.6769718,8.47690141 64.5875352,8.86211268 C65.4966901,9.24873239 66.2678169,9.79873239 66.8988028,10.516338 C67.5311972,11.2332394 68.0178169,12.0952113 68.3600704,13.1015493 C68.7030282,14.1078873 68.8748592,15.231831 68.8748592,16.4726761 L68.8748592,17.9811268 L57.699507,17.9811268 C57.8924648,18.9022535 58.3100704,19.6353521 58.9516197,20.1811268 C59.5945775,20.7276056 60.3861268,21.0008451 61.3283803,21.0008451 C62.1199296,21.0008451 62.7889437,20.8233803 63.3354225,20.4705634 C63.880493,20.1177465 64.3572535,19.6628169 64.7635915,19.1050704 L68.1354225,21.5776056 Z" id="Fill-8"></path>
                <path d="M70.1903521,8.67035211 L75.0065493,8.67035211 L75.0065493,11.1752817 L75.0706338,11.1752817 C75.5847183,10.2111972 76.1938732,9.48866197 76.9009155,9.00767606 C77.6072535,8.52528169 78.4952817,8.28514085 79.5657042,8.28514085 C79.8445775,8.28514085 80.1227465,8.29640845 80.4009155,8.31612676 C80.6797887,8.33795775 80.9361268,8.38161972 81.171338,8.445 L81.171338,12.845 C80.8290845,12.7379577 80.4924648,12.6576761 80.1600704,12.6034507 C79.8283803,12.5506338 79.4797887,12.523169 79.1164085,12.523169 C78.1959859,12.523169 77.4685211,12.651338 76.9333099,12.9083803 C76.3980986,13.1654225 75.9854225,13.5238732 75.6966901,13.9844366 C75.408662,14.445 75.2206338,14.995 75.1347183,15.6379577 C75.0488028,16.2802113 75.0065493,16.9872535 75.0065493,17.7569718 L75.0065493,24.2752817 L70.1903521,24.2752817 L70.1903521,8.67035211 Z" id="Fill-10"></path>
                <path d="M82.2316197,8.67035211 L86.8548592,8.67035211 L86.8548592,10.788662 L86.9196479,10.788662 C87.0682394,10.4900704 87.2830282,10.1900704 87.5611972,9.89007042 C87.8400704,9.59077465 88.1724648,9.32316901 88.5569718,9.08795775 C88.9421831,8.85274648 89.3809155,8.65908451 89.873169,8.50908451 C90.3661268,8.35978873 90.901338,8.28514085 91.479507,8.28514085 C92.5710563,8.28514085 93.5393662,8.50908451 94.3844366,8.95908451 C95.2302113,9.40838028 95.866831,10.1147183 96.2957042,11.0780986 C96.8520423,10.0724648 97.5266901,9.35556338 98.3182394,8.92669014 C99.1097887,8.49922535 100.085141,8.28514085 101.24007,8.28514085 C102.287958,8.28514085 103.172465,8.46119718 103.89007,8.81401408 C104.605563,9.16823944 105.173169,9.64922535 105.590775,10.2597887 C106.00838,10.8689437 106.307676,11.5879577 106.49007,12.4111972 C106.671761,13.2344366 106.762606,14.1182394 106.762606,15.0597887 L106.762606,24.2752817 L101.946408,24.2752817 L101.946408,15.188662 C101.946408,14.460493 101.791479,13.8344366 101.480915,13.310493 C101.171056,12.7858451 100.619648,12.523169 99.8280986,12.523169 C99.2703521,12.523169 98.8048592,12.6147183 98.4309155,12.7957042 C98.0562676,12.9780986 97.7562676,13.2302113 97.5323239,13.5506338 C97.3062676,13.8717606 97.1464085,14.2471127 97.0499296,14.6738732 C96.9534507,15.1034507 96.9062676,15.5520423 96.9062676,16.023169 L96.9062676,24.2752817 L92.088662,24.2752817 L92.088662,16.023169 C92.088662,15.745 92.0773944,15.4027465 92.0569718,14.995 C92.0358451,14.588662 91.9597887,14.2034507 91.8323239,13.8393662 C91.7034507,13.4752817 91.4942958,13.1654225 91.2055634,12.9083803 C90.916831,12.651338 90.4942958,12.523169 89.9372535,12.523169 C89.316831,12.523169 88.8140141,12.6358451 88.4288028,12.860493 C88.0435915,13.0851408 87.7485211,13.3851408 87.5457042,13.7590845 C87.3421831,14.1344366 87.2083803,14.5576761 87.1442958,15.0273944 C87.0802113,15.4992254 87.0478169,15.9914789 87.0478169,16.5048592 L87.0478169,24.2752817 L82.2316197,24.2752817 L82.2316197,8.67035211 Z" id="Fill-12"></path>
                <path d="M108.625352,24.2752817 L113.441549,24.2752817 L113.441549,8.67035211 L108.625352,8.67035211 L108.625352,24.2752817 Z M108.240845,3.75697183 C108.240845,2.98725352 108.514085,2.32809859 109.059859,1.78232394 C109.605634,1.2365493 110.26338,0.963309859 111.034507,0.963309859 C111.804225,0.963309859 112.46338,1.2365493 113.009155,1.78232394 C113.554225,2.32809859 113.828169,2.98725352 113.828169,3.75697183 C113.828169,4.52809859 113.554225,5.18584507 113.009155,5.73161972 C112.46338,6.27880282 111.804225,6.5506338 111.034507,6.5506338 C110.26338,6.5506338 109.605634,6.27880282 109.059859,5.73161972 C108.514085,5.18584507 108.240845,4.52809859 108.240845,3.75697183 L108.240845,3.75697183 Z" id="Fill-14"></path>
                <polygon id="Fill-16" points="115.369014 24.2752817 120.185211 24.2752817 120.185211 -7.04225352e-05 115.369014 -7.04225352e-05"></polygon>
                <path d="M132.739859,14.7064789 C132.760986,13.8930986 132.49338,13.1973239 131.937042,12.6191549 C131.38,12.0409859 130.663099,11.7522535 129.786338,11.7522535 C129.250423,11.7522535 128.78,11.838169 128.372958,12.01 C127.96662,12.1811268 127.618732,12.4001408 127.329296,12.6670423 C127.039859,12.9353521 126.815915,13.2459155 126.654648,13.5994366 C126.494789,13.9522535 126.403239,14.3212676 126.382113,14.7064789 L132.739859,14.7064789 Z M136.818028,21.5776056 C136.047606,22.5635211 135.072958,23.3226761 133.896197,23.8578873 C132.718028,24.3930986 131.497606,24.6607042 130.235634,24.6607042 C129.036338,24.6607042 127.907465,24.4684507 126.84831,24.081831 C125.787746,23.6973239 124.867324,23.1466197 124.085634,22.4297183 C123.305352,21.7121127 122.689859,20.8508451 122.239859,19.844507 C121.790563,18.8374648 121.565915,17.7142254 121.565915,16.4726761 C121.565915,15.231831 121.790563,14.1078873 122.239859,13.1015493 C122.689859,12.0952113 123.305352,11.2332394 124.085634,10.516338 C124.867324,9.79873239 125.787746,9.24873239 126.84831,8.86211268 C127.907465,8.47690141 129.036338,8.28535211 130.235634,8.28535211 C131.347606,8.28535211 132.359577,8.47690141 133.269437,8.86211268 C134.179296,9.24873239 134.950423,9.79873239 135.581408,10.516338 C136.213803,11.2332394 136.700423,12.0952113 137.041972,13.1015493 C137.385634,14.1078873 137.556761,15.231831 137.556761,16.4726761 L137.556761,17.9811268 L126.382113,17.9811268 C126.57507,18.9022535 126.992676,19.6353521 127.634225,20.1811268 C128.277183,20.7276056 129.068732,21.0008451 130.010282,21.0008451 C130.802535,21.0008451 131.471549,20.8233803 132.017324,20.4705634 C132.563099,20.1177465 133.039859,19.6628169 133.446197,19.1050704 L136.818028,21.5776056 Z" id="Fill-17"></path>
                <path d="M138.872958,8.67035211 L143.689155,8.67035211 L143.689155,11.1752817 L143.753239,11.1752817 C144.267324,10.2111972 144.876479,9.48866197 145.582817,9.00767606 C146.289859,8.52528169 147.177887,8.28514085 148.24831,8.28514085 C148.527183,8.28514085 148.805352,8.29640845 149.083521,8.31612676 C149.362394,8.33795775 149.618732,8.38161972 149.853944,8.445 L149.853944,12.845 C149.51169,12.7379577 149.17507,12.6576761 148.842676,12.6034507 C148.510986,12.5506338 148.162394,12.523169 147.799014,12.523169 C146.878592,12.523169 146.150423,12.651338 145.615211,12.9083803 C145.08,13.1654225 144.668028,13.5238732 144.378592,13.9844366 C144.090563,14.445 143.903239,14.995 143.817324,15.6379577 C143.730704,16.2802113 143.689155,16.9872535 143.689155,17.7569718 L143.689155,24.2752817 L138.872958,24.2752817 L138.872958,8.67035211 Z" id="Fill-18"></path>
            </g>
            <text id="Elite" font-family="IBMPlexSans, IBM Plex Sans" font-size="16" font-weight="normal" line-spacing="24" letter-spacing="0.24" fill="#E09F2D">
                <tspan x="116.784" y="44">Elite</tspan>
            </text>
            <rect id="Rectangle" fill="#E09F2D" x="0" y="40" width="108" height="2" rx="1"></rect>
        </g>
    </g>
</svg>