<svg xmlns="http://www.w3.org/2000/svg" width="208" height="52" viewBox="0 0 208 52">
    <g fill="none" fill-rule="evenodd">
        <path fill="#10A310" d="M.471 3.92C2.635 3.412 11.232 1.484 22.974 0c12.294 1.575 20.421 3.42 22.501 3.917.303.073.5.36.464.669l-4.38 37.07c-.022.183-.124.346-.278.446l-17.715 9.38c-.375.198-.824.198-1.2 0l-17.703-9.38c-.155-.1-.257-.263-.279-.445L.004 4.589c-.037-.31.163-.598.467-.67"/>
        <g>
            <path fill="#FFF" d="M22.828 40.262c.108-.057.176-.169.177-.291l.126-13.82c0-.188-.015-.342-.153-.47l-8.748-9.406c-.143-.154-.222-.354-.22-.564.008-1.896.048-11.55-.027-14.561-.005-.203-.187-.355-.386-.322C7.867 1.77 1.642 3.086.384 3.382c-.248.058-.41.293-.38.546L1.86 19.673l8.598 7.385c.074.063.117.156.117.254v2.627c0 .158-.165.262-.307.195L2.67 26.549l.9 7.627c.017.149.1.282.226.362l14.415 7.654c.306.163.672.163.978 0l3.638-1.93z" transform="translate(4.51 4.51)"/>
            <path fill="#F5F5F5" d="M37.02 3.216C35.486 2.85 22.238.624 19.778.202c-.206-.036-.392.122-.392.329v14.484c0 .199.072.391.204.541l7.819 8.895c.054.066.08.15.074.235l-.16 12.296c-.003.25.266.414.49.296l5.777-3.038c.126-.08.21-.213.227-.361l1.46-12.27c.025-.21-.052-.419-.207-.563l-7.367-6.871c-.134-.125-.21-.3-.21-.483v-1.654c0-.146.154-.243.287-.18l7.73 1.613c.386.08.758-.185.804-.574L37.4 3.759c.03-.251-.132-.485-.38-.543" transform="translate(4.51 4.51)"/>
        </g>
        <g fill="#FFF">
            <path d="M12.94 7.097c-.407-.514-.958-.895-1.654-1.14-.696-.246-1.354-.37-1.974-.37-.365 0-.738.044-1.125.129-.385.086-.749.22-1.092.401-.341.183-.62.423-.834.723-.214.3-.32.663-.32 1.092 0 .684.256 1.21.77 1.573.513.364 1.161.674 1.943.93.78.258 1.62.515 2.52.771.899.258 1.738.622 2.52 1.093.782.47 1.43 1.102 1.944 1.894.513.792.77 1.852.77 3.18 0 1.262-.237 2.364-.707 3.306-.471.942-1.107 1.723-1.91 2.344-.803.621-1.734 1.08-2.794 1.38-1.06.3-2.178.45-3.355.45-1.477 0-2.847-.224-4.11-.674-1.263-.45-2.44-1.177-3.532-2.184l3.564-3.916c.514.684 1.16 1.214 1.942 1.589s1.59.561 2.425.561c.406 0 .819-.048 1.236-.144.417-.097.792-.24 1.124-.434.331-.191.599-.438.803-.738.203-.3.305-.652.305-1.06 0-.684-.264-1.225-.787-1.62-.525-.397-1.183-.733-1.974-1.013-.793-.277-1.649-.556-2.57-.834-.92-.278-1.777-.653-2.568-1.124-.792-.472-1.451-1.093-1.975-1.863C1 10.629.738 9.612.738 8.349c0-1.22.241-2.29.723-3.211.482-.92 1.123-1.691 1.927-2.312.802-.62 1.727-1.086 2.777-1.397C7.213 1.12 8.294.963 9.408.963c1.284 0 2.525.182 3.725.546 1.198.365 2.28.975 3.243 1.83L12.94 7.098zM32.944 24.275h-4.623v-2.12h-.065c-.171.3-.391.6-.66.9-.267.3-.593.568-.977.803-.385.236-.824.429-1.318.579-.491.148-1.027.224-1.605.224-1.22 0-2.21-.188-2.97-.562-.76-.374-1.348-.894-1.765-1.557-.418-.663-.696-1.445-.835-2.345-.14-.898-.21-1.872-.21-2.92V8.67h4.817v7.642c0 .45.015.915.048 1.397.032.481.129.926.29 1.333.16.407.406.738.738.995.33.257.808.385 1.429.385.62 0 1.124-.112 1.509-.337.385-.225.679-.524.882-.9.203-.374.338-.795.402-1.267.064-.47.096-.964.096-1.477V8.67h4.817v15.604zM39.622 16.473c0 1.177.338 2.13 1.012 2.858.675.728 1.621 1.09 2.842 1.09 1.22 0 2.167-.362 2.842-1.09.674-.729 1.01-1.681 1.01-2.858 0-1.178-.336-2.13-1.01-2.858-.675-.727-1.622-1.092-2.842-1.092-1.221 0-2.167.365-2.842 1.092-.674.728-1.012 1.68-1.012 2.858zM35.19 8.67h4.43v2.055h.066c.193-.279.444-.562.754-.85.31-.29.675-.552 1.092-.787.418-.235.872-.429 1.364-.579.493-.15 1.017-.224 1.573-.224 1.157 0 2.205.198 3.148.594.941.396 1.75.952 2.424 1.67.675.716 1.193 1.567 1.557 2.552.364.985.546 2.066.546 3.243 0 1.091-.166 2.136-.498 3.131-.332.995-.802 1.879-1.412 2.649-.61.77-1.355 1.386-2.232 1.846-.878.46-1.873.69-2.987.69-1.006 0-1.942-.156-2.809-.465-.867-.31-1.579-.84-2.135-1.59h-.063v8.991H35.19V8.67zM64.057 14.706c.021-.813-.246-1.509-.803-2.087-.556-.578-1.273-.867-2.15-.867-.536 0-1.007.086-1.413.258-.407.171-.755.39-1.044.657-.289.268-.514.579-.674.932-.16.353-.252.722-.273 1.107h6.357zm4.078 6.872c-.77.986-1.745 1.745-2.921 2.28-1.178.535-2.398.803-3.661.803-1.2 0-2.327-.193-3.387-.58-1.06-.384-1.98-.934-2.762-1.651-.781-.718-1.397-1.58-1.847-2.585-.448-1.008-.674-2.13-.674-3.372 0-1.241.226-2.365.674-3.371.45-1.007 1.066-1.869 1.847-2.586.781-.717 1.702-1.267 2.762-1.654 1.06-.385 2.188-.577 3.387-.577 1.113 0 2.124.192 3.035.577.909.387 1.68.937 2.31 1.654.633.717 1.12 1.58 1.462 2.586.343 1.006.515 2.13.515 3.37v1.51H57.7c.192.92.61 1.653 1.252 2.2.643.546 1.434.819 2.376.819.792 0 1.46-.178 2.007-.53.545-.353 1.022-.808 1.429-1.366l3.371 2.473zM70.19 8.67h4.817v2.505h.064c.514-.964 1.123-1.686 1.83-2.167.706-.483 1.594-.723 2.665-.723.279 0 .557.011.835.031.279.022.535.066.77.129v4.4c-.342-.107-.679-.187-1.01-.242-.333-.052-.681-.08-1.045-.08-.92 0-1.647.128-2.183.385-.535.257-.948.616-1.236 1.076-.288.461-.476 1.011-.562 1.654-.086.642-.128 1.35-.128 2.119v6.518H70.19V8.67zM82.232 8.67h4.623v2.119h.065c.148-.299.363-.599.641-.899.28-.3.611-.567.996-.802.385-.235.824-.429 1.316-.579.493-.15 1.028-.224 1.607-.224 1.091 0 2.06.224 2.904.674.846.45 1.483 1.156 1.912 2.12.556-1.007 1.23-1.723 2.022-2.152.792-.428 1.767-.642 2.922-.642 1.048 0 1.932.176 2.65.529.716.354 1.283.835 1.7 1.446.418.609.718 1.328.9 2.151.182.823.273 1.707.273 2.649v9.215h-4.817V15.19c0-.729-.155-1.355-.465-1.879-.31-.524-.861-.787-1.653-.787-.558 0-1.023.092-1.397.273-.375.182-.675.434-.899.755-.226.32-.386.696-.482 1.123-.097.43-.144.878-.144 1.35v8.251H92.09v-8.252c0-.278-.012-.62-.032-1.028-.021-.406-.097-.792-.225-1.156-.129-.364-.338-.674-.626-.93-.29-.258-.712-.386-1.269-.386-.62 0-1.123.113-1.508.337-.385.225-.68.525-.883.9-.204.374-.338.798-.402 1.267-.064.472-.096.964-.096 1.478v7.77h-4.816V8.67zM108.625 24.275h4.817V8.67h-4.817v15.605zm-.384-20.518c0-.77.273-1.429.819-1.975.546-.545 1.203-.819 1.975-.819.77 0 1.428.274 1.974.82.545.545.82 1.204.82 1.974 0 .771-.275 1.429-.82 1.975-.546.547-1.205.819-1.974.819-.772 0-1.43-.272-1.975-.82-.546-.545-.82-1.203-.82-1.974zM115.369 24.275L120.185 24.275 120.185 0 115.369 0zM132.74 14.706c.021-.813-.247-1.509-.803-2.087-.557-.578-1.274-.867-2.15-.867-.537 0-1.007.086-1.414.258-.406.171-.754.39-1.044.657-.29.268-.513.579-.674.932-.16.353-.252.722-.273 1.107h6.358zm4.078 6.872c-.77.986-1.745 1.745-2.922 2.28-1.178.535-2.398.803-3.66.803-1.2 0-2.329-.193-3.388-.58-1.06-.384-1.98-.934-2.762-1.651-.78-.718-1.396-1.58-1.846-2.585-.45-1.008-.674-2.13-.674-3.372 0-1.241.225-2.365.674-3.371.45-1.007 1.065-1.869 1.846-2.586.781-.717 1.702-1.267 2.762-1.654 1.06-.385 2.188-.577 3.388-.577 1.112 0 2.124.192 3.033.577.91.387 1.681.937 2.312 1.654.633.717 1.12 1.58 1.461 2.586.344 1.006.515 2.13.515 3.37v1.51h-11.175c.193.92.61 1.653 1.252 2.2.643.546 1.435.819 2.376.819.793 0 1.462-.178 2.007-.53.546-.353 1.023-.808 1.43-1.366l3.371 2.473zM138.873 8.67h4.816v2.505h.064c.514-.964 1.123-1.686 1.83-2.167.707-.483 1.595-.723 2.665-.723.28 0 .557.011.836.031.278.022.535.066.77.129v4.4c-.342-.107-.679-.187-1.011-.242-.332-.052-.68-.08-1.044-.08-.92 0-1.649.128-2.184.385-.535.257-.947.616-1.236 1.076-.288.461-.476 1.011-.562 1.654-.086.642-.128 1.35-.128 2.119v6.518h-4.816V8.67z" transform="translate(58 10)"/>
        </g>
    </g>
</svg>
