<?xml version="1.0" encoding="UTF-8"?>
<svg width="32px" height="32px" viewBox="0 0 32 32" version="1.1" xmlns="http://www.w3.org/2000/svg" xmlns:xlink="http://www.w3.org/1999/xlink">
    <title>👀 Icons / z_coins</title>
    <g id="👀-Icons-/-z_coins" stroke="none" stroke-width="1" fill="none" fill-rule="evenodd">
        <g id="👀-Icons-/-z_coins" fill="#10A310">
            <path d="M6.4433404,11.6691895 C6.90218436,11.3618124 7.52332923,11.4846006 7.8307063,11.9434446 C8.13808338,12.4022885 8.0152952,13.0234334 7.55645124,13.3308105 C5.3548082,14.8056792 3.99989582,17.2942017 3.99989582,20 C3.99989582,24.4181153 7.58178057,28 11.9998958,28 C14.7054548,28 17.1941481,26.644962 18.669112,24.4434048 C18.976511,23.9845756 19.5976618,23.8618171 20.056491,24.1692162 C20.5153203,24.4766152 20.6380787,25.097766 20.3306797,25.5565952 C18.4878403,28.3072498 15.3788972,30 11.9998958,30 C6.47721107,30 1.99989582,25.5226847 1.99989582,20 C1.99989582,16.6207516 3.69253367,13.51194 6.4433404,11.6691895 Z M11.6332378,19.7260427 C12.0278022,20.0488682 12.1118358,20.610525 11.8473591,21.0312204 L11.7739573,21.1332378 L11.065,21.999 L14.5,22 C15.0128358,22 15.4355072,22.3860402 15.4932723,22.8833789 L15.5,23 C15.5,23.5128358 15.1139598,23.9355072 14.6166211,23.9932723 L14.5,24 L13,23.999 L13,25 C13,25.5522847 12.5522847,26 12,26 C11.4871642,26 11.0644928,25.6139598 11.0067277,25.1166211 L11,25 L11,23.999 L9.83333333,24 C9.09695367,24 8.5,23.4030463 8.5,22.6666667 C8.5,22.2760636 8.61824493,21.8959859 8.83717942,21.5756134 L8.93712196,21.4421098 L10.2260427,19.8667622 C10.5757703,19.4393174 11.205793,19.3763151 11.6332378,19.7260427 Z M20,2 C25.5226847,2 30,6.47731525 30,12 C30,17.5226847 25.5226847,22 20,22 C14.4773153,22 10,17.5226847 10,12 C10,6.47731525 14.4773153,2 20,2 Z M20,4 C15.5818847,4 12,7.58188475 12,12 C12,16.4181153 15.5818847,20 20,20 C24.4181153,20 28,16.4181153 28,12 C28,7.58188475 24.4181153,4 20,4 Z M20,6 C20.5128358,6 20.9355072,6.38604019 20.9932723,6.88337887 L21,7 L21,8 L21.8333333,8 C22.569713,8 23.1666667,8.59695367 23.1666667,9.33333333 C23.1666667,9.75879666 23.0164314,10.1687703 22.7453388,10.49233 L22.6380712,10.6094757 L19.246,14 L22.5,14 C23.0128358,14 23.4355072,14.3860402 23.4932723,14.8833789 L23.5,15 C23.5,15.5128358 23.1139598,15.9355072 22.6166211,15.9932723 L22.5,16 L21,16 L21,17 C21,17.5522847 20.5522847,18 20,18 C19.4871642,18 19.0644928,17.6139598 19.0067277,17.1166211 L19,17 L19,16 L17.8333333,16 C17.0969537,16 16.5,15.4030463 16.5,14.6666667 C16.5,14.2412033 16.6502352,13.8312297 16.9213279,13.50767 L17.0285955,13.3905243 L20.418,10 L17.8333333,10 C17.3204975,10 16.8978262,9.61395981 16.8400611,9.11662113 L16.8333333,9 C16.8333333,8.48716416 17.2193735,8.06449284 17.7167122,8.00672773 L17.8333333,8 L19,8 L19,7 C19,6.44771525 19.4477153,6 20,6 Z" id="Shape"></path>
        </g>
    </g>
</svg>